<svg width="171" height="146" viewBox="0 0 171 146" version="1.1" xmlns="http://www.w3.org/2000/svg" xmlns:xlink="http://www.w3.org/1999/xlink">
<title>Page 1</title>
<desc>Created using Figma</desc>
<g id="Canvas" transform="translate(124 379)">
<g id="Vector 2">
<use xlink:href="#path0_fill" transform="translate(-123 -378)" fill="#FFFFFF"/>
<use xlink:href="#path1_stroke" transform="translate(-123 -378)"/>
</g>
<g id="Ellipse">
<use xlink:href="#path2_fill" transform="translate(-78 -335)" fill="#FCC419"/>
</g>
</g>
<defs>
<path id="path0_fill" d="M 63.7778 142.498C 69.0209 142.498 73.7675 138.941 78.3903 136.355C 80.9196 133.486 83.9484 135.047 87.4445 137.72C 95.5022 143.882 107.501 145.065 117 141.72C 123.562 139.41 130.309 137.989 136.944 135.998C 141.976 134.489 154.351 131.761 156.778 126.72C 158.237 123.691 155.43 116.53 154.5 113.554C 152.555 107.331 150.461 102.419 147.444 96.3871C 144.38 90.2576 139.903 86.7003 141 79.6093C 142.107 72.4536 142.164 65.385 143 58.2759C 144.662 44.1509 170.189 38.8418 168.778 23.7204C 167.968 15.0473 164.574 12.4524 157.485 7.03218L 157.222 6.8315C 150.847 1.95644 141.519 -1.36938 133.667 0.553723C 123.361 3.07753 115.727 13.2911 106.444 18.2759C 100.136 21.664 92.2847 25.0172 85.0556 25.3315C 80.0945 25.5472 70.1276 25.1943 65.7778 22.8315C 56.7374 17.9207 54.0344 11.738 42.9445 12.9982C 34.5518 13.9519 31.1204 13.9352 24.4445 19.2759C 19.9336 22.8847 18.5184 31.1891 14.6111 35.7759C 6.40704 45.4068 8.71415 56.1672 8.00001 67.8315C 7.61425 74.1322 1.09653e-05 77.6421 1.09653e-05 84.8871L 5.53526e-06 84.9737C -0.00029031 88.1317 -0.000790596 93.4708 3.44446 95.0537C 7.60915 96.9672 14.3614 93.8107 16.5 99.2759C 18.2126 103.652 17.556 108.113 18.0556 112.609C 18.8327 119.604 21.8545 127.834 27.2222 132.498C 31.5873 136.291 39.0805 142.633 45.1111 143.387C 51.3474 144.167 57.5498 142.498 63.7778 142.498Z"/>
<path id="path1_stroke" d="M 80.2236 135.945C 80.4706 135.822 80.5707 135.522 80.4472 135.275C 80.3237 135.028 80.0234 134.927 79.7764 135.051L 80.2236 135.945ZM 27.2222 132.498L 27.5502 132.121L 27.2222 132.498ZM 18.0556 112.609L 18.5525 112.554L 18.0556 112.609ZM 16.5 99.2759L 16.9656 99.0937L 16.5 99.2759ZM 3.44446 95.0537L 3.23571 95.5081L 3.44446 95.0537ZM 8.00001 67.8315L 7.50094 67.8009L 8.00001 67.8315ZM 14.6111 35.7759L 14.9917 36.1002L 14.6111 35.7759ZM 24.4445 19.2759L 24.7568 19.6664L 24.4445 19.2759ZM 42.9445 12.9982L 43.0009 13.495L 42.9445 12.9982ZM 65.7778 22.8315L 66.0165 22.3921L 65.7778 22.8315ZM 85.0556 25.3315L 85.0338 24.832L 85.0556 25.3315ZM 106.444 18.2759L 106.208 17.8354L 106.444 18.2759ZM 133.667 0.553723L 133.548 0.0680743L 133.667 0.553723ZM 157.222 6.8315L 156.919 7.22868L 157.222 6.8315ZM 168.778 23.7204L 168.28 23.7669L 168.778 23.7204ZM 143 58.2759L 143.497 58.3344L 143 58.2759ZM 141 79.6093L 140.506 79.5329L 141 79.6093ZM 154.5 113.554L 154.977 113.405L 154.5 113.554ZM 156.778 126.72L 156.327 126.503L 156.778 126.72ZM 136.944 135.998L 137.088 136.477L 137.088 136.477L 136.944 135.998ZM 117 141.72L 117.166 142.192L 117 141.72ZM 87.4445 137.72L 87.1407 138.118L 87.4445 137.72ZM 76.5528 138.275C 76.4293 138.522 76.5294 138.822 76.7764 138.945C 77.0234 139.069 77.3237 138.969 77.4472 138.722L 76.5528 138.275ZM 79.7764 135.051C 77.1806 136.35 74.5829 138.103 71.9234 139.52C 69.2658 140.937 66.61 142.007 63.7778 141.998L 63.7778 142.998C 66.799 142.989 69.6871 141.843 72.3937 140.402C 75.0984 138.96 77.6851 137.213 80.2236 135.945L 79.7764 135.051ZM 63.7778 141.998C 60.6305 141.999 57.4974 142.419 54.3964 142.738C 51.2955 143.056 48.2425 143.277 45.1731 142.891L 45.0491 143.883C 48.216 144.277 51.3823 144.053 54.4987 143.732C 57.615 143.412 60.6971 142.997 63.7778 142.998L 63.7778 141.998ZM 45.1731 142.891C 42.2809 142.529 38.9821 140.813 35.8229 138.668C 32.6726 136.531 29.7312 134.016 27.5502 132.121L 26.8943 132.876C 29.0784 134.773 32.066 137.326 35.2613 139.496C 38.4477 141.659 41.9107 143.491 45.0491 143.883L 45.1731 142.891ZM 27.5502 132.121C 22.3134 127.571 19.3222 119.481 18.5525 112.554L 17.5586 112.664C 18.3433 119.726 21.3955 128.098 26.8943 132.876L 27.5502 132.121ZM 18.5525 112.554C 18.3053 110.338 18.345 108.114 18.232 105.873C 18.1185 103.631 17.8412 101.342 16.9656 99.0937L 16.0344 99.4581C 16.8713 101.586 17.1221 103.716 17.2333 105.923C 17.3451 108.13 17.3063 110.385 17.5586 112.664L 18.5525 112.554ZM 16.9656 99.0937C 16.3873 97.6158 15.4803 96.6925 14.3682 96.133C 13.2963 95.6007 12.0209 95.4021 10.7589 95.3336C 9.49894 95.2663 8.19588 95.3107 6.96398 95.2527C 5.73351 95.1956 4.6248 95.0519 3.65321 94.5994L 3.23571 95.5081C 4.34645 96.0123 5.64354 96.1916 6.91727 96.2516C 8.18957 96.3107 9.48912 96.2663 10.7052 96.3322C 11.9191 96.3969 12.9931 96.5536 13.9188 97.0263C 14.8045 97.4719 15.5434 98.2035 16.0344 99.4581L 16.9656 99.0937ZM 3.65321 94.5994C 2.12955 93.8993 1.3215 92.339 0.906811 90.4442C 0.489083 88.5495 0.50001 86.461 0.500011 84.8871L -0.499989 84.8871C -0.499988 86.4591 -0.505322 88.6551 -0.0700679 90.658C 0.368226 92.6606 1.2824 94.6106 3.23571 95.5081L 3.65321 94.5994ZM 0.500011 84.8871C 0.500011 81.4503 2.29782 78.8835 4.25358 76.3076C 6.17441 73.7776 8.295 71.1952 8.49908 67.8621L 7.50094 67.8009C 7.31926 70.7685 5.43985 73.0914 3.45713 75.7029C 1.50932 78.2683 -0.499989 81.0789 -0.499989 84.8871L 0.500011 84.8871ZM 8.49908 67.8621C 8.85707 61.9969 8.45878 56.4005 8.99433 51.0912C 9.52576 45.784 10.9494 40.8283 14.9917 36.1002L 14.2305 35.4517C 10.0687 40.3545 8.54392 45.5944 7.99934 50.9912C 7.45889 56.3859 7.85709 62.0018 7.50094 67.8009L 8.49908 67.8621ZM 14.9917 36.1002C 17.0031 33.739 18.3668 30.4308 19.7568 27.3657C 21.1699 24.2496 22.609 21.3846 24.7568 19.6664L 24.1321 18.8855C 21.769 20.776 20.2451 23.8676 18.8461 26.9526C 17.4239 30.0887 16.1264 33.2261 14.2305 35.4517L 14.9917 36.1002ZM 24.7568 19.6664C 28.0564 17.0238 30.4954 15.7386 33.188 14.9727C 35.8809 14.2013 38.7961 13.9727 43.0009 13.495L 42.888 12.5014C 38.7001 12.9773 35.7033 13.2172 32.9134 14.0111C 30.1231 14.8105 27.5085 16.1873 24.1321 18.8855L 24.7568 19.6664ZM 43.0009 13.495C 48.4217 12.879 51.7576 14.076 54.864 16.0243C 58.0158 17.9981 60.9641 20.7809 65.5391 23.2709L 66.0165 22.3921C 61.5511 19.9713 58.6277 17.2073 55.3954 15.1771C 52.1177 13.1214 48.5571 11.8571 42.888 12.5014L 43.0009 13.495ZM 65.5391 23.2709C 67.8105 24.5047 71.4796 25.1891 75.1389 25.5461C 78.8164 25.9044 82.5836 25.9393 85.0773 25.831L 85.0338 24.832C 82.5665 24.9394 78.8696 24.9058 75.236 24.5508C 71.5841 24.1946 68.0949 23.5212 66.0165 22.3921L 65.5391 23.2709ZM 85.0773 25.831C 92.4238 25.5116 100.358 22.1124 106.681 18.7164L 106.208 17.8354C 99.9137 21.2157 92.1456 24.5228 85.0338 24.832L 85.0773 25.831ZM 106.681 18.7164C 111.373 16.1926 115.638 12.3651 119.985 8.88209C 124.33 5.39905 128.722 2.27036 133.786 1.03937L 133.548 0.0680743C 128.306 1.36089 123.728 4.60087 119.359 8.10177C 114.991 11.6027 110.798 15.3744 106.208 17.8354L 106.681 18.7164ZM 133.786 1.03937C 141.44 -0.835172 150.614 2.40783 156.919 7.22868L 157.526 6.43432C 151.08 1.50506 141.599 -1.90359 133.548 0.0680743L 133.786 1.03937ZM 156.919 7.22868C 160.554 10.0087 163.189 11.9935 165.023 14.3737C 166.829 16.711 167.877 19.4463 168.28 23.7669L 169.276 23.6739C 168.859 19.2151 167.764 16.285 165.814 13.7622C 163.892 11.2825 161.159 9.21253 157.526 6.43432L 156.919 7.22868ZM 168.28 23.7669C 168.618 27.386 167.351 30.4297 165.185 33.205C 163.002 36.0073 159.937 38.4886 156.735 40.977C 153.532 43.4654 150.201 45.949 147.566 48.6983C 144.924 51.458 142.937 54.5347 142.503 58.2175L 143.497 58.3344C 143.894 54.9547 145.721 52.0708 148.288 49.3899C 150.863 46.6984 154.138 44.2612 157.348 41.7666C 160.559 39.2718 163.715 36.7078 165.973 33.8204C 168.248 30.9059 169.644 27.6155 169.276 23.6739L 168.28 23.7669ZM 142.503 58.2175C 141.665 65.3537 141.608 72.4132 140.506 79.5329L 141.494 79.6857C 142.605 72.4939 142.663 65.4163 143.497 58.3344L 142.503 58.2175ZM 140.506 79.5329C 139.953 83.1932 140.836 86.0116 142.221 88.5953C 143.608 91.1735 145.489 93.589 146.997 96.6107L 147.892 96.1634C 146.335 93.0556 144.446 90.6278 143.102 88.1222C 141.757 85.6221 140.95 83.1164 141.494 79.6857L 140.506 79.5329ZM 146.997 96.6107C 150.007 102.629 152.086 107.504 154.023 113.703L 154.977 113.405C 153.025 107.158 150.914 102.21 147.892 96.1634L 146.997 96.6107ZM 154.023 113.703C 154.492 115.203 155.421 117.723 156.05 120.238C 156.364 121.495 156.6 122.722 156.669 123.835C 156.74 124.947 156.637 125.861 156.327 126.503L 157.228 126.937C 157.648 126.065 157.742 124.948 157.667 123.772C 157.592 122.597 157.341 121.28 157.02 119.996C 156.377 117.429 155.438 114.881 154.977 113.405L 154.023 113.703ZM 156.327 126.503C 155.781 127.639 154.646 128.692 153.097 129.66C 151.548 130.631 149.662 131.47 147.663 132.215C 143.665 133.706 139.329 134.761 136.801 135.519L 137.088 136.477C 139.591 135.726 143.958 134.662 148.012 133.152C 150.04 132.396 152.017 131.514 153.628 130.508C 155.239 129.5 156.561 128.322 157.228 126.937L 156.327 126.503ZM 136.801 135.519C 130.185 137.504 123.427 138.928 116.834 141.249L 117.166 142.192C 123.697 139.891 130.432 138.473 137.088 136.477L 136.801 135.519ZM 116.834 141.249C 107.47 144.546 95.6527 143.368 87.7482 137.323L 87.1407 138.118C 95.3518 144.397 107.532 145.584 117.166 142.192L 116.834 141.249ZM 87.7482 137.323C 85.6788 135.741 83.6501 134.443 81.7348 134.33C 80.7832 134.279 79.7877 134.548 78.9227 135.18C 78.0535 135.825 77.269 136.842 76.5528 138.275L 77.4472 138.722C 78.1224 137.371 78.8191 136.502 79.5188 135.982C 80.2227 135.449 80.8841 135.274 81.6755 135.328C 83.2463 135.421 85.0484 136.518 87.1407 138.118L 87.7482 137.323Z"/>
<path id="path2_fill" d="M 69 34.5C 69 53.5538 53.5538 69 34.5 69C 15.4462 69 0 53.5538 0 34.5C 0 15.4462 15.4462 0 34.5 0C 53.5538 0 69 15.4462 69 34.5Z"/>
</defs>
</svg>
