<svg width="356" height="68" viewBox="0 0 356 68" version="1.1" xmlns="http://www.w3.org/2000/svg" xmlns:xlink="http://www.w3.org/1999/xlink">
<title>alacarte</title>
<desc>Created using Figma</desc>
<g id="Canvas" transform="translate(219 64)">
<g id="alacarte">
<use xlink:href="#path0_fill" transform="translate(-222 -83)" fill="#4C6EF5"/>
</g>
</g>
<defs>
<path id="path0_fill" d="M 43.2 78.128C 43.2 78.128 44.224 77.872 46.272 77.36C 48.192 77.36 49.152 78.32 49.152 80.24C 49.152 81.648 48.192 82.672 46.272 83.312C 45.12 83.696 43.968 83.888 42.816 83.888C 41.728 83.888 40.672 83.632 39.648 83.12C 38.624 82.608 37.824 81.84 37.248 80.816C 36.288 79.152 35.584 77.36 35.136 75.44L 34.752 73.808C 33.664 75.664 31.008 77.84 26.784 80.336C 22.624 82.832 18.176 84.08 13.44 84.08C 10.88 84.08 8.64 83.12 6.72 81.2C 4.8 79.28 3.84 77.04 3.84 74.48C 3.84 68.272 6.4 62.896 11.52 58.352C 16.64 53.744 21.824 51.44 27.072 51.44C 29.952 51.44 32.416 51.984 34.464 53.072C 36.576 54.096 37.632 55.152 37.632 56.24C 37.632 58.16 36.672 59.12 34.752 59.12C 34.368 59.12 33.44 58.8 31.968 58.16C 30.496 57.52 28.864 57.2 27.072 57.2C 23.616 57.2 19.84 58.896 15.744 62.288C 11.648 65.616 9.6 69.68 9.6 74.48C 9.6 75.44 9.984 76.336 10.752 77.168C 11.584 77.936 12.48 78.32 13.44 78.32C 17.216 78.32 20.736 77.328 24 75.344C 27.264 73.296 29.344 71.632 30.24 70.352C 31.136 69.008 31.872 67.792 32.448 66.704C 33.024 65.616 33.44 64.912 33.696 64.592C 34.016 64.208 34.656 64.016 35.616 64.016C 36.576 64.016 37.312 64.368 37.824 65.072C 38.336 65.776 38.816 66.896 39.264 68.432C 39.712 69.904 40.16 71.568 40.608 73.424C 41.056 75.28 41.44 76.528 41.76 77.168C 42.144 77.808 42.624 78.128 43.2 78.128ZM 79.725 86C 73.581 86 68.429 81.392 64.269 72.176C 61.965 74.032 59.053 76.08 55.533 78.32C 52.013 80.56 49.709 81.936 48.621 82.448C 47.533 82.896 46.637 83.12 45.933 83.12C 44.013 83.12 43.053 82.16 43.053 80.24C 43.053 79.024 44.013 78.032 45.933 77.264C 47.021 76.816 49.293 75.472 52.749 73.232C 56.269 70.928 59.245 68.784 61.677 66.8C 60.269 62.192 59.565 57.072 59.565 51.44C 59.565 42.928 61.133 35.568 64.269 29.36C 67.469 23.088 71.021 19.952 74.925 19.952C 76.589 19.952 78.029 20.464 79.245 21.488C 80.461 22.512 81.357 23.792 81.933 25.328C 83.021 28.272 83.565 31.472 83.565 34.928C 83.565 38.384 83.181 41.904 82.413 45.488C 81.645 49.008 80.717 51.984 79.629 54.416C 78.605 56.848 77.357 59.12 75.885 61.232C 73.709 64.368 71.437 66.896 69.069 68.816C 72.525 76.432 76.077 80.24 79.725 80.24C 82.221 80.24 84.909 79.76 87.789 78.8C 90.669 77.84 92.205 77.36 92.397 77.36C 94.317 77.36 95.277 78.32 95.277 80.24C 95.277 81.648 94.317 82.672 92.397 83.312C 87.021 85.104 82.797 86 79.725 86ZM 74.925 25.712C 73.837 25.712 72.429 27.056 70.701 29.744C 67.117 35.376 65.325 42.608 65.325 51.44C 65.325 55.92 65.805 59.856 66.765 63.248C 68.877 61.264 70.829 58.704 72.621 55.568C 76.077 49.552 77.805 42.416 77.805 34.16C 77.805 32.304 77.549 30.448 77.037 28.592C 76.525 26.672 75.821 25.712 74.925 25.712ZM 135.45 78.128C 135.45 78.128 136.474 77.872 138.522 77.36C 140.442 77.36 141.402 78.32 141.402 80.24C 141.402 81.648 140.442 82.672 138.522 83.312C 137.37 83.696 136.218 83.888 135.066 83.888C 133.978 83.888 132.922 83.632 131.898 83.12C 130.874 82.608 130.074 81.84 129.498 80.816C 128.538 79.152 127.834 77.36 127.386 75.44L 127.002 73.808C 125.914 75.664 123.258 77.84 119.034 80.336C 114.874 82.832 110.426 84.08 105.69 84.08C 103.13 84.08 100.89 83.12 98.97 81.2C 97.05 79.28 96.09 77.04 96.09 74.48C 96.09 68.272 98.65 62.896 103.77 58.352C 108.89 53.744 114.074 51.44 119.322 51.44C 122.202 51.44 124.666 51.984 126.714 53.072C 128.826 54.096 129.882 55.152 129.882 56.24C 129.882 58.16 128.922 59.12 127.002 59.12C 126.618 59.12 125.69 58.8 124.218 58.16C 122.746 57.52 121.114 57.2 119.322 57.2C 115.866 57.2 112.09 58.896 107.994 62.288C 103.898 65.616 101.85 69.68 101.85 74.48C 101.85 75.44 102.234 76.336 103.002 77.168C 103.834 77.936 104.73 78.32 105.69 78.32C 109.466 78.32 112.986 77.328 116.25 75.344C 119.514 73.296 121.594 71.632 122.49 70.352C 123.386 69.008 124.122 67.792 124.698 66.704C 125.274 65.616 125.69 64.912 125.946 64.592C 126.266 64.208 126.906 64.016 127.866 64.016C 128.826 64.016 129.562 64.368 130.074 65.072C 130.586 65.776 131.066 66.896 131.514 68.432C 131.962 69.904 132.41 71.568 132.858 73.424C 133.306 75.28 133.69 76.528 134.01 77.168C 134.394 77.808 134.874 78.128 135.45 78.128ZM 178.311 81.488C 170.311 84.496 163.815 86 158.823 86C 153.895 86 149.895 84.432 146.823 81.296C 143.751 78.096 142.215 74.544 142.215 70.64C 142.215 64.944 145.031 59.696 150.663 54.896C 156.295 50.032 162.119 47.6 168.135 47.6C 170.759 47.6 173.159 48.144 175.335 49.232C 177.575 50.32 178.695 51.376 178.695 52.4C 178.695 54.32 177.735 55.28 175.815 55.28C 174.983 55.28 173.927 54.96 172.647 54.32C 171.367 53.68 169.863 53.36 168.135 53.36C 163.655 53.36 159.175 55.216 154.695 58.928C 150.215 62.576 147.975 66.48 147.975 70.64C 147.975 73.328 149.031 75.6 151.143 77.456C 153.319 79.312 156.103 80.24 159.495 80.24C 162.887 80.24 168.359 78.928 175.911 76.304C 175.847 75.92 175.815 75.312 175.815 74.48C 175.815 68.272 177.863 63.376 181.959 59.792C 186.119 56.144 190.855 54.32 196.167 54.32C 199.111 54.32 201.767 54.864 204.135 55.952C 206.503 57.04 207.687 58.096 207.687 59.12C 207.687 61.04 206.727 62 204.807 62C 204.423 62 203.335 61.68 201.543 61.04C 199.751 60.4 197.959 60.08 196.167 60.08C 192.647 60.08 189.319 61.296 186.183 63.728C 183.111 66.096 181.575 69.68 181.575 74.48C 181.575 75.888 182.023 77.04 182.919 77.936C 183.815 78.832 184.967 79.28 186.375 79.28C 190.151 79.28 193.991 78.128 197.895 75.824C 201.799 73.456 204.327 71.44 205.479 69.776L 206.823 67.76C 207.335 66.992 207.719 66.416 207.975 66.032C 208.295 65.648 208.583 65.264 208.839 64.88C 209.287 64.176 209.799 63.856 210.375 63.92C 211.975 63.92 213.095 64.368 213.735 65.264C 214.375 66.096 214.791 67.696 214.983 70.064C 215.495 76.08 216.199 79.088 217.095 79.088C 218.055 79.088 219.143 78.96 220.359 78.704C 221.575 78.384 222.631 78.096 223.527 77.84C 224.423 77.52 224.903 77.36 224.967 77.36C 226.887 77.36 227.847 78.32 227.847 80.24C 227.847 81.648 226.887 82.672 224.967 83.312C 221.895 84.336 219.399 84.848 217.479 84.848C 215.623 84.848 214.151 84.4 213.063 83.504C 211.975 82.544 211.207 81.36 210.759 79.952C 209.991 77.52 209.607 75.472 209.607 73.808C 208.583 75.664 205.639 78 200.775 80.816C 195.911 83.632 191.111 85.04 186.375 85.04C 183.047 85.04 180.359 83.856 178.311 81.488ZM 310.252 43.76C 310.252 45.68 309.293 46.64 307.373 46.64C 306.605 46.64 305.613 46.48 304.397 46.16C 303.18 45.84 300.973 45.68 297.773 45.68C 296.877 45.68 295.469 46 293.548 46.64C 291.628 47.28 290.476 47.6 290.092 47.6C 288.172 47.6 287.212 46.672 287.212 44.816C 287.212 43.408 288.172 42.384 290.092 41.744C 293.74 40.528 296.301 39.92 297.773 39.92C 306.093 39.92 310.252 41.2 310.252 43.76ZM 273.581 72.08C 269.869 78.8 265.517 82.16 260.524 82.16C 259.244 82.16 258.061 81.84 256.973 81.2C 255.949 80.496 255.148 79.824 254.572 79.184C 254.06 78.544 253.548 77.488 253.036 76.016C 252.397 74.224 251.853 72.464 251.405 70.736C 250.957 68.944 250.06 64.848 248.716 58.448C 248.012 55.056 246.444 53.36 244.012 53.36C 240.812 53.36 238.412 53.744 236.812 54.512C 235.213 55.216 234.412 56.112 234.412 57.2C 234.412 57.712 234.733 58.288 235.373 58.928C 237.292 60.976 238.252 63.312 238.252 65.936C 238.252 68.56 237.804 70.96 236.909 73.136C 235.885 75.248 234.668 76.944 233.261 78.224C 229.613 81.488 226.797 83.12 224.812 83.12C 222.764 83.12 221.74 82.16 221.74 80.24C 221.74 79.024 222.701 78.032 224.62 77.264C 229.868 75.152 232.493 71.344 232.493 65.84C 232.493 65.008 231.852 63.76 230.572 62.096C 229.292 60.368 228.653 58.736 228.653 57.2C 228.653 53.936 230.093 51.536 232.972 50C 235.852 48.4 239.532 47.6 244.012 47.6C 246.764 47.6 249.036 48.56 250.828 50.48C 252.62 52.4 253.837 54.896 254.476 57.968C 255.628 63.6 256.429 67.28 256.877 69.008C 257.325 70.736 257.58 71.792 257.644 72.176C 257.772 72.56 257.997 73.2 258.317 74.096C 258.893 75.632 259.628 76.4 260.524 76.4C 263.661 76.4 266.477 73.68 268.973 68.24C 271.533 62.736 273.132 57.168 273.772 51.536C 275.116 39.824 276.397 30.256 277.613 22.832C 277.933 20.912 278.893 19.952 280.493 19.952C 282.413 19.952 283.373 20.912 283.373 22.832C 283.373 23.088 283.18 24.304 282.796 26.48C 282.476 28.656 281.676 34.608 280.397 44.336C 279.18 54 278.572 60.848 278.572 64.88C 278.572 70.768 280.077 74.96 283.084 77.456C 286.092 79.952 290.348 81.2 295.852 81.2C 302.252 81.2 308.077 80.304 313.325 78.512C 314.221 78.256 315.021 78 315.725 77.744C 316.493 77.488 316.972 77.36 317.164 77.36C 319.084 77.36 320.044 78.32 320.044 80.24C 320.044 81.648 319.084 82.672 317.164 83.312C 310.892 85.744 303.788 86.96 295.852 86.96C 283.308 86.96 275.885 82 273.581 72.08ZM 323.305 80.432C 323.241 80.432 322.761 80.688 321.865 81.2C 319.561 82.48 317.865 83.12 316.777 83.12C 314.857 83.12 313.897 82.16 313.897 80.24C 313.897 79.024 314.857 78.032 316.777 77.264C 317.097 77.136 317.865 76.752 319.081 76.112C 320.297 75.472 321.001 75.088 321.193 74.96C 320.937 74.384 320.809 73.52 320.809 72.368C 320.809 66.608 322.825 61.68 326.857 57.584C 330.889 53.488 334.569 51.44 337.897 51.44C 341.225 51.44 343.849 52.24 345.769 53.84C 347.689 55.376 348.649 57.264 348.649 59.504C 348.649 61.68 348.137 63.568 347.113 65.168C 346.089 66.768 344.489 68.336 342.313 69.872C 339.305 72.048 334.921 74.576 329.161 77.456C 331.721 79.312 335.273 80.24 339.817 80.24C 344.361 80.24 348.841 79.504 353.257 78.032C 354.601 77.584 355.369 77.36 355.561 77.36C 357.481 77.36 358.441 78.32 358.441 80.24C 358.441 81.648 357.481 82.672 355.561 83.312C 350.185 85.104 345.001 86 340.009 86C 332.905 86 327.337 84.144 323.305 80.432ZM 326.569 72.368C 337.449 66.928 342.889 62.832 342.889 60.08C 342.889 58.16 341.289 57.2 338.089 57.2C 336.169 57.2 333.769 58.736 330.889 61.808C 328.009 64.816 326.569 68.336 326.569 72.368Z"/>
</defs>
</svg>
