<svg width="451" height="123" viewBox="0 0 451 123" version="1.1" xmlns="http://www.w3.org/2000/svg" xmlns:xlink="http://www.w3.org/1999/xlink">
<title>alacarte</title>
<desc>Created using Figma</desc>
<g id="Canvas" transform="translate(1027 1248)">
<g id="alacarte">
<g id="Alacarte">
<use xlink:href="#path0_fill" transform="translate(-1025 -1261)" fill="#858585"/>
</g>
</g>
</g>
<defs>
<path id="path0_fill" d="M 13.0664 104C 11.0742 104 9.19922 104.137 7.44141 104.41C 5.72266 104.723 3.84766 104.879 1.81641 104.879C -0.175781 104.879 -1.17188 104.234 -1.17188 102.945C -1.17188 101.617 -0.253906 100.953 1.58203 100.953C 3.49609 100.953 4.86328 100.602 5.68359 99.8984C 7.01172 98.6875 8.32031 96.7148 9.60938 93.9805C 10.8984 91.2461 12.0898 88.6875 13.1836 86.3047C 14.3164 83.9219 15.6055 81.1484 17.0508 77.9844C 18.4961 74.7812 20.0781 71.2266 21.7969 67.3203C 23.5547 63.375 25.3906 59.1953 27.3047 54.7812C 32.3047 43.1797 35.6055 35.3867 37.207 31.4023C 38.8086 27.3789 39.6875 25.1523 39.8438 24.7227C 40.0391 24.293 40.2344 23.9023 40.4297 23.5508C 40.9375 22.7305 41.3672 22.3203 41.7188 22.3203C 42.0703 22.3203 42.3633 22.3789 42.5977 22.4961C 42.832 22.5742 43.0859 22.75 43.3594 23.0234C 43.9453 23.7656 44.5312 24.8789 45.1172 26.3633C 45.7031 27.8086 46.4844 29.7812 47.4609 32.2812C 48.4766 34.7813 49.6289 37.6133 50.918 40.7773C 52.207 43.9414 53.5742 47.3398 55.0195 50.9727C 56.4648 54.6055 57.9102 58.2383 59.3555 61.8711C 60.8398 65.4648 62.2656 68.9609 63.6328 72.3594C 65.0391 75.7578 66.2891 78.8242 67.3828 81.5586C 70.7422 89.7227 72.8906 94.6055 73.8281 96.207C 74.7656 97.8086 75.5469 98.9219 76.1719 99.5469C 77.1484 100.484 78.5938 100.953 80.5078 100.953C 82.4219 100.953 83.3789 101.617 83.3789 102.945C 83.3789 104.234 82.1484 104.879 79.6875 104.879C 78.6328 104.879 77.7148 104.82 76.9336 104.703C 76.1914 104.625 75.4297 104.547 74.6484 104.469C 72.3828 104.156 70.3711 104 68.6133 104L 57.3047 104.879C 54.7656 104.879 53.4961 104.156 53.4961 102.711C 53.4961 101.539 54.1992 100.953 55.6055 100.953L 59.1211 101.363C 60.6055 101.363 61.582 101.051 62.0508 100.426C 62.5195 99.7617 62.7539 98.9414 62.7539 97.9648C 62.7539 96.1289 61.9727 93.2773 60.4102 89.4102L 55.5469 77.2227L 23.0273 77.2227C 22.0898 79.5664 21.2109 81.7148 20.3906 83.668C 19.6094 85.6211 18.8867 87.5156 18.2227 89.3516C 17.168 92.3203 16.6406 94.6641 16.6406 96.3828C 16.6406 98.0625 16.9336 99.3125 17.5195 100.133C 18.1445 100.914 19.2969 101.305 20.9766 101.305L 24.4922 101.012C 25.8984 101.012 26.6016 101.578 26.6016 102.711C 26.6016 104.156 25.332 104.879 22.793 104.879L 13.0664 104ZM 53.5547 72.2422L 39.6094 37.3203C 36.9141 44.1562 32.0898 55.7969 25.1367 72.2422L 53.5547 72.2422ZM 90 104.879C 87.4219 104.879 86.1328 104.156 86.1328 102.711C 86.1328 101.578 86.8555 101.012 88.3008 101.012L 91.2305 101.305C 92.1289 101.305 92.8711 101.148 93.457 100.836C 94.043 100.484 94.4922 99.7617 94.8047 98.668C 95.4297 96.6758 95.7422 92.2617 95.7422 85.4258L 95.7422 41.7734C 95.7422 35.2891 94.3945 31.8516 91.6992 31.4609C 89.7461 31.1484 88.7695 30.5039 88.7695 29.5273C 88.7695 28.6289 89.6875 28.0039 91.5234 27.6523C 93.3594 27.2617 95.0195 26.793 96.5039 26.2461C 97.9883 25.6602 99.2969 25.1133 100.43 24.6055C 101.562 24.0586 102.52 23.5898 103.301 23.1992C 104.121 22.8086 104.707 22.6133 105.059 22.6133C 105.957 22.6133 106.406 23.0625 106.406 23.9609C 106.406 24.3906 106.328 24.8398 106.172 25.3086C 105.352 27.418 104.922 30.0938 104.883 33.3359C 104.844 36.5781 104.824 39.2344 104.824 41.3047L 104.824 85.4258C 104.824 92.2617 105.059 96.4609 105.527 98.0234C 105.996 99.5469 106.523 100.484 107.109 100.836C 107.695 101.148 108.438 101.305 109.336 101.305L 112.266 101.012C 113.711 101.012 114.434 101.578 114.434 102.711C 114.434 104.156 113.145 104.879 110.566 104.879C 109.082 104.879 107.539 104.723 105.938 104.41C 104.336 104.137 102.5 104 100.43 104C 98.3594 104 96.4648 104.137 94.7461 104.41C 93.0664 104.723 91.4844 104.879 90 104.879ZM 175.547 96.1484C 176.68 96.1484 177.246 96.6758 177.246 97.7305C 177.246 98.7461 176.113 99.7227 173.848 100.66C 171.582 101.598 170 102.457 169.102 103.238C 168.203 103.98 167.539 104.527 167.109 104.879C 166.68 105.27 166.172 105.465 165.586 105.465C 164.414 105.465 163.438 104.977 162.656 104C 161.875 103.023 160.82 100.934 159.492 97.7305C 157.266 100.27 154.551 102.203 151.348 103.531C 148.184 104.82 145.039 105.465 141.914 105.465C 136.016 105.465 131.445 103.961 128.203 100.953C 124.961 97.9453 123.34 93.8242 123.34 88.5898C 123.34 83.3555 125.781 79.1172 130.664 75.875C 135.586 72.5938 141.855 70.9531 149.473 70.9531C 151.738 70.9531 154.727 71.3438 158.438 72.125L 158.438 67.5547C 158.438 57.5156 154.199 52.4961 145.723 52.4961C 141.23 52.4961 137.93 54.5664 135.82 58.707C 133.984 62.418 132.188 64.2734 130.43 64.2734C 129.141 64.2734 128.008 63.9023 127.031 63.1602C 126.094 62.418 125.625 61.4805 125.625 60.3477C 125.625 59.2148 126.211 57.9648 127.383 56.5977C 128.555 55.1914 130.117 53.9219 132.07 52.7891C 136.68 50.0938 141.738 48.7461 147.246 48.7461C 157.012 48.7461 163.32 51.9297 166.172 58.2969C 167.227 60.5625 167.754 63.3359 167.754 66.6172L 167.754 89.9961C 167.754 93.0039 168.047 94.9375 168.633 95.7969C 169.219 96.6562 170.039 97.0859 171.094 97.0859C 172.148 97.0859 173.008 96.9297 173.672 96.6172C 174.336 96.3047 174.961 96.1484 175.547 96.1484ZM 158.438 77.5742C 155.625 75.9727 152.07 75.1719 147.773 75.1719C 143.477 75.1719 140.02 76.2461 137.402 78.3945C 134.824 80.543 133.535 83.4336 133.535 87.0664C 133.535 90.6602 134.531 93.668 136.523 96.0898C 138.516 98.4727 141.074 99.6641 144.199 99.6641C 150.879 99.6641 155.684 97.4766 158.613 93.1016C 158.496 92.0078 158.438 90.7969 158.438 89.4688L 158.438 77.5742ZM 182.871 77.1641C 182.871 73.0234 183.613 69.1953 185.098 65.6797C 186.621 62.125 188.672 59.0977 191.25 56.5977C 196.719 51.3633 203.613 48.7461 211.934 48.7461C 216.855 48.9023 221.133 50.0547 224.766 52.2031C 228.477 54.3516 230.41 56.9883 230.566 60.1133C 230.566 61.793 229.453 62.9062 227.227 63.4531C 226.641 63.5703 226.113 63.6289 225.645 63.6289C 223.848 63.6289 222.383 62.3984 221.25 59.9375C 219.023 55.2891 215.254 52.9648 209.941 52.9648C 205.254 52.9648 201.328 54.8984 198.164 58.7656C 194.805 62.8672 193.125 68.2773 193.125 74.9961C 193.125 82.457 194.863 88.4531 198.34 92.9844C 201.973 97.75 206.934 100.133 213.223 100.133C 217.52 100.133 221.289 98.4922 224.531 95.2109C 225.938 93.8047 226.992 93.1016 227.695 93.1016C 229.141 93.1016 229.863 93.8242 229.863 95.2695C 229.863 96.6758 228.477 98.3945 225.703 100.426C 221.211 103.785 215.684 105.465 209.121 105.465C 201.27 105.465 194.883 102.789 189.961 97.4375C 185.234 92.2422 182.871 85.4844 182.871 77.1641ZM 291.797 96.1484C 292.93 96.1484 293.496 96.6758 293.496 97.7305C 293.496 98.7461 292.363 99.7227 290.098 100.66C 287.832 101.598 286.25 102.457 285.352 103.238C 284.453 103.98 283.789 104.527 283.359 104.879C 282.93 105.27 282.422 105.465 281.836 105.465C 280.664 105.465 279.688 104.977 278.906 104C 278.125 103.023 277.07 100.934 275.742 97.7305C 273.516 100.27 270.801 102.203 267.598 103.531C 264.434 104.82 261.289 105.465 258.164 105.465C 252.266 105.465 247.695 103.961 244.453 100.953C 241.211 97.9453 239.59 93.8242 239.59 88.5898C 239.59 83.3555 242.031 79.1172 246.914 75.875C 251.836 72.5938 258.105 70.9531 265.723 70.9531C 267.988 70.9531 270.977 71.3438 274.688 72.125L 274.688 67.5547C 274.688 57.5156 270.449 52.4961 261.973 52.4961C 257.48 52.4961 254.18 54.5664 252.07 58.707C 250.234 62.418 248.438 64.2734 246.68 64.2734C 245.391 64.2734 244.258 63.9023 243.281 63.1602C 242.344 62.418 241.875 61.4805 241.875 60.3477C 241.875 59.2148 242.461 57.9648 243.633 56.5977C 244.805 55.1914 246.367 53.9219 248.32 52.7891C 252.93 50.0938 257.988 48.7461 263.496 48.7461C 273.262 48.7461 279.57 51.9297 282.422 58.2969C 283.477 60.5625 284.004 63.3359 284.004 66.6172L 284.004 89.9961C 284.004 93.0039 284.297 94.9375 284.883 95.7969C 285.469 96.6562 286.289 97.0859 287.344 97.0859C 288.398 97.0859 289.258 96.9297 289.922 96.6172C 290.586 96.3047 291.211 96.1484 291.797 96.1484ZM 274.688 77.5742C 271.875 75.9727 268.32 75.1719 264.023 75.1719C 259.727 75.1719 256.27 76.2461 253.652 78.3945C 251.074 80.543 249.785 83.4336 249.785 87.0664C 249.785 90.6602 250.781 93.668 252.773 96.0898C 254.766 98.4727 257.324 99.6641 260.449 99.6641C 267.129 99.6641 271.934 97.4766 274.863 93.1016C 274.746 92.0078 274.688 90.7969 274.688 89.4688L 274.688 77.5742ZM 301.113 104.879C 298.496 104.879 297.188 104.156 297.188 102.711C 297.188 101.578 297.91 101.012 299.355 101.012L 302.285 101.305C 303.184 101.305 303.926 101.148 304.512 100.836C 305.098 100.484 305.547 99.7617 305.859 98.668C 306.484 96.6758 306.797 92.2617 306.797 85.4258L 306.797 67.9062C 306.797 63.9219 306.543 61.4414 306.035 60.4648C 305.566 59.4492 304.98 58.7656 304.277 58.4141C 303.613 58.0234 302.5 57.7109 300.938 57.4766C 299.414 57.2422 298.652 56.6367 298.652 55.6602C 298.652 54.7617 299.648 54.1172 301.641 53.7266C 306.289 52.75 309.492 51.7734 311.25 50.7969C 313.633 49.4297 315.254 48.7461 316.113 48.7461C 317.012 48.7461 317.461 49.1953 317.461 50.0938C 317.461 50.5234 317.363 50.9727 317.168 51.4414C 317.012 51.9102 316.836 52.4766 316.641 53.1406C 316.328 54.4688 316.094 56.9688 315.938 60.6406C 319.336 54.9375 323.438 51.3828 328.242 49.9766C 329.648 49.5469 331.211 49.332 332.93 49.332C 334.688 49.332 336.23 49.957 337.559 51.207C 338.926 52.457 339.609 53.7852 339.609 55.1914C 339.609 56.5977 339.453 57.6328 339.141 58.2969C 338.828 58.9609 338.438 59.5273 337.969 59.9961C 336.953 61.0117 336.035 61.5195 335.215 61.5195C 334.434 61.5195 333.828 61.3242 333.398 60.9336C 332.969 60.5039 332.48 59.7422 331.934 58.6484C 330.957 56.6953 329.863 55.7188 328.652 55.7188C 327.441 55.7188 326.289 55.9922 325.195 56.5391C 324.102 57.0469 323.008 57.8281 321.914 58.8828C 319.531 61.1094 317.52 64.1367 315.879 67.9648L 315.879 85.4258C 315.879 92.8477 316.074 97.2227 316.465 98.5508C 316.895 99.8398 317.402 100.621 317.988 100.895C 318.613 101.129 319.453 101.246 320.508 101.246L 325.723 100.777C 326.504 100.777 327.129 100.973 327.598 101.363C 328.066 101.715 328.301 102.164 328.301 102.711C 328.301 104.156 326.875 104.879 324.023 104.879L 311.66 104C 309.668 104 307.773 104.137 305.977 104.41C 304.219 104.723 302.598 104.879 301.113 104.879ZM 378.398 54.5469C 378.398 55.6016 377.773 56.1289 376.523 56.1289L 359.883 55.9531L 359.883 88.4141C 359.883 94.4688 361.348 98.0625 364.277 99.1953C 365.176 99.5469 366.23 99.7227 367.441 99.7227C 368.652 99.7227 369.746 99.5273 370.723 99.1367C 371.738 98.707 372.637 98.2578 373.418 97.7891C 374.199 97.3203 374.863 96.8906 375.41 96.5C 375.957 96.0703 376.465 95.8555 376.934 95.8555C 377.441 95.8555 377.891 96.1289 378.281 96.6758C 378.672 97.2227 378.867 97.7695 378.867 98.3164C 378.867 99.6836 377.129 101.324 373.652 103.238C 370.996 104.723 367.656 105.465 363.633 105.465C 359.609 105.465 356.465 104.039 354.199 101.188C 351.934 98.2969 350.801 94.3125 350.801 89.2344L 350.801 55.7773L 347.227 55.7773C 344.414 55.7773 343.008 55.0547 343.008 53.6094C 343.008 52.5547 343.789 51.832 345.352 51.4414C 346.914 51.0508 348.262 50.3672 349.395 49.3906C 350.527 48.375 351.445 47.2422 352.148 45.9922C 352.891 44.7031 353.477 43.375 353.906 42.0078C 354.336 40.6406 354.727 39.3906 355.078 38.2578C 355.938 35.6797 356.914 34.3906 358.008 34.3906C 359.258 34.3906 359.883 35.5039 359.883 37.7305L 359.883 50.9727L 376.348 50.6211C 377.168 50.6211 377.812 51.5977 378.281 53.5508C 378.359 53.9805 378.398 54.3125 378.398 54.5469ZM 392.812 97.4375C 390.547 94.8984 388.789 91.9102 387.539 88.4727C 386.328 85.0352 385.723 81.2266 385.723 77.0469C 385.723 72.8281 386.445 68.9609 387.891 65.4453C 389.336 61.9297 391.328 58.9219 393.867 56.4219C 399.141 51.2266 405.645 48.6289 413.379 48.6289C 419.785 48.6289 424.961 50.7383 428.906 54.957C 432.656 59.0195 434.531 64.0391 434.531 70.0156C 434.531 71.9688 434.258 73.3164 433.711 74.0586C 433.203 74.7617 432.559 75.1914 431.777 75.3477C 430.996 75.4648 429.922 75.582 428.555 75.6992C 427.188 75.7773 425.527 75.875 423.574 75.9922C 421.621 76.1094 419.434 76.2266 417.012 76.3438C 414.629 76.4609 412.188 76.5977 409.688 76.7539C 403.945 77.1055 399.336 77.457 395.859 77.8086C 396.719 88.3164 400.742 95.1328 407.93 98.2578C 410.273 99.2734 412.773 99.7812 415.43 99.7812C 421.055 99.7812 425.508 98.1406 428.789 94.8594C 430.195 93.4531 431.27 92.75 432.012 92.75C 433.418 92.75 434.121 93.5898 434.121 95.2695C 434.121 96.1289 433.535 97.1641 432.363 98.375C 431.191 99.5859 429.512 100.836 427.324 102.125C 423.457 104.352 418.945 105.465 413.789 105.465C 408.633 105.465 404.414 104.762 401.133 103.355C 397.891 101.91 395.117 99.9375 392.812 97.4375ZM 395.742 73.4727C 414.062 72.5352 423.711 71.5391 424.688 70.4844C 425.039 70.0938 425.215 68.9414 425.215 67.0273C 425.215 65.1133 424.844 63.2578 424.102 61.4609C 423.359 59.625 422.363 58.0625 421.113 56.7734C 418.535 54.1562 415.332 52.8477 411.504 52.8477C 407.168 52.8477 403.516 54.6641 400.547 58.2969C 397.422 62.0859 395.82 67.1445 395.742 73.4727Z"/>
</defs>
</svg>
