<svg width="607" height="156" viewBox="0 0 607 156" version="1.1" xmlns="http://www.w3.org/2000/svg" xmlns:xlink="http://www.w3.org/1999/xlink">
<title>Page 1</title>
<desc>Created using Figma</desc>
<g id="Canvas" transform="translate(1167 1006)">
<g id="Component" filter="url(#filter0_d)">
<g id="Vector 2">
<use xlink:href="#path0_fill" transform="matrix(-0.912834 -0.408332 0.408332 -0.912834 -1051.05 -860.946)" fill="#FFFFFF"/>
<use xlink:href="#path1_stroke" transform="matrix(-0.912834 -0.408332 0.408332 -0.912834 -1051.05 -860.946)" fill="#363636"/>
</g>
<g id="Ellipse">
<use xlink:href="#path2_fill" transform="matrix(-0.912834 -0.408332 0.408332 -0.912834 -1067.78 -901.888)" fill="#FCC419"/>
</g>
</g>
<g id="alacarte">
<g id="Alacarte">
<use xlink:href="#path3_fill" transform="translate(-1009 -1006)" fill="#FCC419"/>
<use xlink:href="#path4_fill" transform="translate(-1009 -1006)" fill="#353535"/>
</g>
</g>
</g>
<defs>
<filter id="filter0_d" filterUnits="userSpaceOnUse" x="-1167" y="-1006" width="164" height="156" color-interpolation-filters="sRGB">
<feFlood flood-opacity="0" result="BackgroundImageFix"/>
<feColorMatrix in="SourceAlpha" type="matrix" values="0 0 0 0 0 0 0 0 0 0 0 0 0 0 0 0 0 0 255 0"/>
<feOffset dx="0" dy="4"/>
<feGaussianBlur stdDeviation="3"/>
<feColorMatrix type="matrix" values="0 0 0 0 0 0 0 0 0 0 0 0 0 0 0 0 0 0 0.25 0"/>
<feBlend mode="normal" in2="BackgroundImageFix" result="effect1_dropShadow"/>
<feBlend mode="normal" in="SourceGraphic" in2="effect1_dropShadow" result="shape"/>
</filter>
<path id="path0_fill" d="M 45.3305 101.221C 49.0571 101.221 52.4308 98.6947 55.7164 96.8574C 57.5141 94.8198 59.6669 95.9284 62.1517 97.8274C 67.8788 102.204 76.4069 103.045 83.1585 100.669C 87.8226 99.0274 92.6178 98.0181 97.3342 96.6041C 100.91 95.5319 109.706 93.5941 111.431 90.0137C 112.468 87.8616 110.473 82.7749 109.812 80.661C 108.43 76.2408 106.941 72.752 104.797 68.467C 102.619 64.113 99.4373 61.5861 100.217 56.5491C 101.003 51.4662 101.044 46.4451 101.638 41.3954C 102.819 31.3618 120.963 27.5906 119.96 16.8494C 119.385 10.6886 116.972 8.84538 111.933 4.99519L 111.747 4.85264C 107.216 1.38973 100.586 -0.972716 95.0045 0.393328C 87.6797 2.18607 82.2535 9.44108 75.6561 12.982C 71.172 15.3887 65.592 17.7705 60.4538 17.9938C 56.9277 18.147 49.8436 17.8964 46.752 16.218C 40.3265 12.7297 38.4053 8.33786 30.523 9.23303C 24.5579 9.91049 22.119 9.89862 17.3741 13.6924C 14.1679 16.2557 13.1621 22.1547 10.3849 25.4129C 4.55384 32.254 6.19364 39.8974 5.68606 48.183C 5.41188 52.6586 7.79368e-06 55.1518 7.79368e-06 60.2981L 3.93424e-06 60.3597C -0.000206337 62.6029 -0.000561714 66.3954 2.44817 67.5199C 5.40825 68.8791 10.2075 66.6369 11.7275 70.519C 12.9447 73.6278 12.4781 76.7966 12.8331 79.9901C 13.3855 84.9585 15.5332 90.805 19.3484 94.1179C 22.4509 96.8119 27.7767 101.317 32.063 101.853C 36.4955 102.406 40.9039 101.221 45.3305 101.221Z"/>
<path id="path1_stroke" d="M 57.084 96.6962C 57.331 96.5727 57.4312 96.2724 57.3078 96.0254C 57.1844 95.7784 56.884 95.6782 56.637 95.8016L 57.084 96.6962ZM 32.063 101.853L 32.125 101.356L 32.125 101.356L 32.063 101.853ZM 19.3484 94.1179L 19.6762 93.7404L 19.6762 93.7404L 19.3484 94.1179ZM 12.8331 79.9901L 12.3362 80.0454L 12.3362 80.0454L 12.8331 79.9901ZM 11.7275 70.519L 12.1931 70.3367L 12.1931 70.3367L 11.7275 70.519ZM 2.44817 67.5199L 2.23952 67.9742L 2.23952 67.9742L 2.44817 67.5199ZM 3.93424e-06 60.3597L 0.500004 60.3597L 0.500004 60.3597L 3.93424e-06 60.3597ZM 7.79368e-06 60.2981L 0.500008 60.2982L 0.500008 60.2981L 7.79368e-06 60.2981ZM 5.68606 48.183L 5.187 48.1524L 5.68606 48.183ZM 10.3849 25.4129L 10.0044 25.0885L 10.0044 25.0885L 10.3849 25.4129ZM 17.3741 13.6924L 17.6863 14.0829L 17.6863 14.0829L 17.3741 13.6924ZM 30.523 9.23303L 30.5795 9.72984L 30.5795 9.72984L 30.523 9.23303ZM 46.752 16.218L 46.5134 16.6574L 46.5134 16.6574L 46.752 16.218ZM 60.4538 17.9938L 60.4321 17.4943L 60.4321 17.4943L 60.4538 17.9938ZM 75.6561 12.982L 75.8925 13.4226L 75.8925 13.4226L 75.6561 12.982ZM 95.0045 0.393328L 95.1233 0.878993L 95.1233 0.878993L 95.0045 0.393328ZM 111.747 4.85264L 111.443 5.24991L 111.443 5.24993L 111.747 4.85264ZM 111.933 4.99519L 111.63 5.39247L 111.63 5.39249L 111.933 4.99519ZM 119.96 16.8494L 119.462 16.8959L 119.462 16.8959L 119.96 16.8494ZM 101.638 41.3954L 102.135 41.4538L 102.135 41.4538L 101.638 41.3954ZM 100.217 56.5491L 99.7226 56.4727L 99.7226 56.4727L 100.217 56.5491ZM 104.797 68.467L 105.244 68.2432L 105.244 68.2432L 104.797 68.467ZM 109.812 80.661L 110.289 80.5118L 110.289 80.5118L 109.812 80.661ZM 111.431 90.0137L 110.98 89.7967L 110.98 89.7967L 111.431 90.0137ZM 97.3342 96.6041L 97.1906 96.1251L 97.1906 96.1251L 97.3342 96.6041ZM 83.1585 100.669L 82.9925 100.197L 82.9925 100.197L 83.1585 100.669ZM 62.1517 97.8274L 61.8481 98.2247L 61.8481 98.2247L 62.1517 97.8274ZM 54.2811 98.1562C 54.1575 98.4031 54.2576 98.7035 54.5045 98.8271C 54.7515 98.9506 55.0519 98.8506 55.1754 98.6036L 54.2811 98.1562ZM 56.637 95.8016C 56.2501 95.995 55.8586 96.205 55.4724 96.421L 55.9605 97.2938C 56.3391 97.082 56.71 96.883 57.084 96.6962L 56.637 95.8016ZM 55.4724 96.421C 53.8144 97.3485 52.1594 98.4337 50.4649 99.2812C 48.7727 100.13 47.1087 100.729 45.3305 100.721L 45.3305 101.721C 47.2788 101.714 49.165 101.05 50.9127 100.175C 52.6581 99.3004 54.3328 98.2036 55.9605 97.2938L 55.4724 96.421ZM 45.3305 100.721C 43.0839 100.722 40.8496 101.021 38.6478 101.247C 36.4461 101.474 34.2925 101.63 32.125 101.356L 32.001 102.349C 34.266 102.629 36.5328 102.47 38.7501 102.242C 40.9672 102.014 43.1505 101.72 45.3305 101.721L 45.3305 100.721ZM 32.125 101.356C 30.1049 101.104 27.7839 99.9017 25.5425 98.381C 23.3099 96.8671 21.2259 95.086 19.6762 93.7404L 19.0206 94.4954C 20.5733 95.8437 22.7035 97.6623 24.9811 99.2085C 27.2498 100.748 29.7349 102.066 32.001 102.349L 32.125 101.356ZM 19.6762 93.7404C 15.9921 90.5413 13.8749 84.836 13.33 79.9349L 12.3362 80.0454C 12.896 85.081 15.0743 91.0688 19.0206 94.4954L 19.6762 93.7404ZM 13.33 79.9349C 13.155 78.3701 13.1834 76.7945 13.103 75.1976C 13.0219 73.6005 12.821 71.9516 12.1931 70.3367L 11.2619 70.7013C 11.8512 72.1952 12.0255 73.6851 12.1042 75.248C 12.1835 76.811 12.1561 78.4166 12.3362 80.0454L 13.33 79.9349ZM 12.1931 70.3367C 11.7693 69.2545 11.1003 68.5709 10.2772 68.1571C 9.49421 67.7703 8.5586 67.6232 7.6547 67.5741C 6.75285 67.5261 5.82619 67.5576 4.95644 67.5165C 4.08812 67.4764 3.32729 67.3794 2.65682 67.0655L 2.23952 67.9742C 3.04909 68.3399 3.9982 68.4723 4.90975 68.5154C 5.81988 68.5575 6.74304 68.526 7.60101 68.5726C 8.45693 68.6181 9.19113 68.7233 9.82799 69.0505C 10.4248 69.3505 10.9256 69.8425 11.2619 70.7013L 12.1931 70.3367ZM 2.65682 67.0655C 1.64538 66.601 1.08734 65.5641 0.793696 64.2502C 0.496741 62.9354 0.499899 61.4813 0.500004 60.3597L -0.499996 60.3596C -0.500101 61.4812 -0.497227 63.045 -0.182229 64.4684C 0.136084 65.8926 0.802231 67.3143 2.23952 67.9742L 2.65682 67.0655ZM 0.500004 60.3597L 0.500008 60.2982L -0.499992 60.2981L -0.499996 60.3596L 0.500004 60.3597ZM 0.500008 60.2981C 0.500008 57.9108 1.74711 56.1228 3.13835 54.2915C 4.49461 52.5063 6.03683 50.6343 6.18512 48.2136L 5.187 48.1524C 5.06111 50.2073 3.7603 51.8198 2.34208 53.6866C 0.95884 55.5074 -0.499992 57.5391 -0.499992 60.2981L 0.500008 60.2981ZM 6.18512 48.2136C 6.43984 44.0378 6.15674 40.0653 6.53667 36.3063C 6.91248 32.5495 7.90967 29.0704 10.7655 25.7372L 10.0044 25.0885C 7.02912 28.5964 5.93066 32.3597 5.54169 36.2062C 5.15685 40.0506 5.43986 44.0427 5.187 48.1524L 6.18512 48.2136ZM 10.7655 25.7372C 12.2118 24.0403 13.1907 21.6656 14.1739 19.4987C 15.1803 17.2807 16.1909 15.2785 17.6863 14.0829L 17.0618 13.3018C 15.351 14.6696 14.2556 16.8985 13.2633 19.0855C 12.2479 21.3233 11.3352 23.5272 10.0044 25.0885L 10.7655 25.7372ZM 17.6863 14.0829C 20.0204 12.2138 21.7286 11.3141 23.6282 10.7749C 25.5282 10.2302 27.5884 10.0695 30.5795 9.72984L 30.4666 8.73623C 27.4925 9.07407 25.3507 9.2461 23.3538 9.81327C 21.3565 10.3859 19.4727 11.3771 17.0618 13.3018L 17.6863 14.0829ZM 30.5795 9.72984C 34.3965 9.29635 36.7351 10.1369 38.9182 11.5054C 41.1467 12.8993 43.2459 14.8787 46.5134 16.6574L 46.9905 15.7786C 43.8326 14.0689 41.7584 12.1083 39.4493 10.658C 37.095 9.1823 34.5318 8.27455 30.4666 8.73623L 30.5795 9.72984ZM 46.5134 16.6574C 48.1557 17.549 50.7895 18.0367 53.3914 18.2904C 56.0116 18.5454 58.6993 18.5704 60.4755 18.4933L 60.4321 17.4943C 58.6822 17.5705 56.0648 17.5468 53.4885 17.2951C 50.8939 17.0422 48.4399 16.5654 46.9905 15.7786L 46.5134 16.6574ZM 60.4755 18.4933C 65.731 18.265 71.3938 15.8371 75.8925 13.4226L 75.4196 12.5415C 70.9502 14.9403 65.4529 17.2761 60.4321 17.4943L 60.4755 18.4933ZM 75.8925 13.4226C 79.2421 11.6208 82.2841 8.89386 85.3701 6.42235C 88.4554 3.95082 91.5499 1.74448 95.1233 0.878993L 94.8856 -0.0923371C 91.1343 0.834922 87.8533 3.15246 84.7449 5.64185C 81.6372 8.13127 78.6675 10.8023 75.4196 12.5415L 75.8925 13.4226ZM 95.1233 0.878993C 100.507 -0.438552 106.983 1.84118 111.443 5.24991L 112.05 4.45538C 107.448 0.938274 100.665 -1.50688 94.8856 -0.0923371L 95.1233 0.878993ZM 111.443 5.24993L 111.63 5.39247L 112.237 4.59791L 112.05 4.45536L 111.443 5.24993ZM 111.63 5.39249C 114.149 7.31759 115.962 8.69697 117.223 10.3589C 118.457 11.9786 119.181 13.8833 119.462 16.8959L 120.458 16.8029C 120.164 13.6546 119.393 11.5573 118.018 9.75274C 116.669 7.9903 114.756 6.52299 112.237 4.59789L 111.63 5.39249ZM 119.462 16.8959C 119.698 19.4198 118.816 21.5462 117.292 23.4974C 115.751 25.4757 113.586 27.2262 111.311 28.9929C 109.036 30.7596 106.661 32.5305 104.779 34.4917C 102.89 36.4635 101.455 38.6768 101.142 41.3369L 102.135 41.4538C 102.412 39.0971 103.688 37.0765 105.501 35.1836C 107.323 33.2801 109.642 31.5556 111.925 29.7827C 114.208 28.0096 116.465 26.1763 118.08 24.113C 119.713 22.0226 120.724 19.6496 120.458 16.8029L 119.462 16.8959ZM 101.142 41.3369C 100.545 46.4138 100.505 51.4258 99.7226 56.4727L 100.711 56.6256C 101.502 51.5066 101.543 46.4764 102.135 41.4538L 101.142 41.3369ZM 99.7226 56.4727C 99.3285 59.1061 99.9671 61.1534 100.957 63.0009C 101.949 64.8427 103.285 66.5568 104.35 68.6907L 105.244 68.2432C 104.131 66.0232 102.787 64.2968 101.838 62.5275C 100.888 60.7638 100.326 59.0292 100.711 56.6256L 99.7226 56.4727ZM 104.35 68.6907C 106.487 72.9621 107.961 76.4137 109.335 80.8102L 110.289 80.5118C 108.899 76.0678 107.395 72.5419 105.244 68.2432L 104.35 68.6907ZM 109.335 80.8102C 109.669 81.8791 110.329 83.6655 110.773 85.4444C 110.996 86.3332 111.161 87.1921 111.209 87.9734C 111.259 88.754 111.184 89.3733 110.98 89.7967L 111.881 90.2308C 112.196 89.5781 112.261 88.7545 112.207 87.9101C 112.153 87.0663 111.972 86.1178 111.743 85.2016C 111.284 83.3707 110.616 81.5568 110.289 80.5118L 109.335 80.8102ZM 110.98 89.7967C 110.609 90.5668 109.83 91.2971 108.738 91.9792C 107.646 92.6637 106.318 93.2536 104.902 93.781C 102.068 94.8375 98.9912 95.5854 97.1906 96.1251L 97.4778 97.083C 99.253 96.5505 102.362 95.7935 105.251 94.718C 106.696 94.1794 108.115 93.5466 109.268 92.8272C 110.423 92.1055 111.39 91.2509 111.881 90.2308L 110.98 89.7967ZM 97.1906 96.1251C 92.4944 97.5336 87.6879 98.5459 82.9925 100.197L 83.3245 101.14C 87.9574 99.5089 92.7412 98.5026 97.4778 97.083L 97.1906 96.1251ZM 82.9925 100.197C 76.3756 102.526 68.0292 101.69 62.4553 97.4301L 61.8481 98.2247C 67.7285 102.719 76.4382 103.564 83.3245 101.14L 82.9925 100.197ZM 62.4553 97.4301C 61.2127 96.4804 59.9797 95.6672 58.794 95.3802C 57.5438 95.0776 56.3654 95.366 55.3415 96.5266L 56.0914 97.1882C 56.8651 96.3112 57.662 96.1351 58.5588 96.3522C 59.5201 96.5848 60.6059 97.2753 61.8481 98.2247L 62.4553 97.4301ZM 55.3415 96.5266C 54.9766 96.9421 54.6113 97.498 54.2811 98.1562L 55.1754 98.6036C 55.478 97.9969 55.7716 97.5487 56.0914 97.1882L 55.3415 96.5266Z"/>
<path id="path2_fill" d="M 49.0422 24.5065C 49.0422 38.0411 38.0637 49.013 24.5211 49.013C 10.9785 49.013 0 38.0411 0 24.5065C 0 10.9719 10.9785 0 24.5211 0C 38.0637 0 49.0422 10.9719 49.0422 24.5065Z"/>
<path id="path3_fill" d="M 13.0664 104C 11.0742 104 9.19922 104.137 7.44141 104.41C 5.72266 104.723 3.84766 104.879 1.81641 104.879C -0.175781 104.879 -1.17188 104.234 -1.17188 102.945C -1.17188 101.617 -0.253906 100.953 1.58203 100.953C 3.49609 100.953 4.86328 100.602 5.68359 99.8984C 7.01172 98.6875 8.32031 96.7148 9.60938 93.9805C 10.8984 91.2461 12.0898 88.6875 13.1836 86.3047C 14.3164 83.9219 15.6055 81.1484 17.0508 77.9844C 18.4961 74.7812 20.0781 71.2266 21.7969 67.3203C 23.5547 63.375 25.3906 59.1953 27.3047 54.7812C 32.3047 43.1797 35.6055 35.3867 37.207 31.4023C 38.8086 27.3789 39.6875 25.1523 39.8438 24.7227C 40.0391 24.293 40.2344 23.9023 40.4297 23.5508C 40.9375 22.7305 41.3672 22.3203 41.7188 22.3203C 42.0703 22.3203 42.3633 22.3789 42.5977 22.4961C 42.832 22.5742 43.0859 22.75 43.3594 23.0234C 43.9453 23.7656 44.5312 24.8789 45.1172 26.3633C 45.7031 27.8086 46.4844 29.7812 47.4609 32.2812C 48.4766 34.7813 49.6289 37.6133 50.918 40.7773C 52.207 43.9414 53.5742 47.3398 55.0195 50.9727C 56.4648 54.6055 57.9102 58.2383 59.3555 61.8711C 60.8398 65.4648 62.2656 68.9609 63.6328 72.3594C 65.0391 75.7578 66.2891 78.8242 67.3828 81.5586C 70.7422 89.7227 72.8906 94.6055 73.8281 96.207C 74.7656 97.8086 75.5469 98.9219 76.1719 99.5469C 77.1484 100.484 78.5938 100.953 80.5078 100.953C 82.4219 100.953 83.3789 101.617 83.3789 102.945C 83.3789 104.234 82.1484 104.879 79.6875 104.879C 78.6328 104.879 77.7148 104.82 76.9336 104.703C 76.1914 104.625 75.4297 104.547 74.6484 104.469C 72.3828 104.156 70.3711 104 68.6133 104L 57.3047 104.879C 54.7656 104.879 53.4961 104.156 53.4961 102.711C 53.4961 101.539 54.1992 100.953 55.6055 100.953L 59.1211 101.363C 60.6055 101.363 61.582 101.051 62.0508 100.426C 62.5195 99.7617 62.7539 98.9414 62.7539 97.9648C 62.7539 96.1289 61.9727 93.2773 60.4102 89.4102L 55.5469 77.2227L 23.0273 77.2227C 22.0898 79.5664 21.2109 81.7148 20.3906 83.668C 19.6094 85.6211 18.8867 87.5156 18.2227 89.3516C 17.168 92.3203 16.6406 94.6641 16.6406 96.3828C 16.6406 98.0625 16.9336 99.3125 17.5195 100.133C 18.1445 100.914 19.2969 101.305 20.9766 101.305L 24.4922 101.012C 25.8984 101.012 26.6016 101.578 26.6016 102.711C 26.6016 104.156 25.332 104.879 22.793 104.879L 13.0664 104ZM 53.5547 72.2422L 39.6094 37.3203C 36.9141 44.1562 32.0898 55.7969 25.1367 72.2422L 53.5547 72.2422ZM 90 104.879C 87.4219 104.879 86.1328 104.156 86.1328 102.711C 86.1328 101.578 86.8555 101.012 88.3008 101.012L 91.2305 101.305C 92.1289 101.305 92.8711 101.148 93.457 100.836C 94.043 100.484 94.4922 99.7617 94.8047 98.668C 95.4297 96.6758 95.7422 92.2617 95.7422 85.4258L 95.7422 41.7734C 95.7422 35.2891 94.3945 31.8516 91.6992 31.4609C 89.7461 31.1484 88.7695 30.5039 88.7695 29.5273C 88.7695 28.6289 89.6875 28.0039 91.5234 27.6523C 93.3594 27.2617 95.0195 26.793 96.5039 26.2461C 97.9883 25.6602 99.2969 25.1133 100.43 24.6055C 101.562 24.0586 102.52 23.5898 103.301 23.1992C 104.121 22.8086 104.707 22.6133 105.059 22.6133C 105.957 22.6133 106.406 23.0625 106.406 23.9609C 106.406 24.3906 106.328 24.8398 106.172 25.3086C 105.352 27.418 104.922 30.0938 104.883 33.3359C 104.844 36.5781 104.824 39.2344 104.824 41.3047L 104.824 85.4258C 104.824 92.2617 105.059 96.4609 105.527 98.0234C 105.996 99.5469 106.523 100.484 107.109 100.836C 107.695 101.148 108.438 101.305 109.336 101.305L 112.266 101.012C 113.711 101.012 114.434 101.578 114.434 102.711C 114.434 104.156 113.145 104.879 110.566 104.879C 109.082 104.879 107.539 104.723 105.938 104.41C 104.336 104.137 102.5 104 100.43 104C 98.3594 104 96.4648 104.137 94.7461 104.41C 93.0664 104.723 91.4844 104.879 90 104.879ZM 175.547 96.1484C 176.68 96.1484 177.246 96.6758 177.246 97.7305C 177.246 98.7461 176.113 99.7227 173.848 100.66C 171.582 101.598 170 102.457 169.102 103.238C 168.203 103.98 167.539 104.527 167.109 104.879C 166.68 105.27 166.172 105.465 165.586 105.465C 164.414 105.465 163.438 104.977 162.656 104C 161.875 103.023 160.82 100.934 159.492 97.7305C 157.266 100.27 154.551 102.203 151.348 103.531C 148.184 104.82 145.039 105.465 141.914 105.465C 136.016 105.465 131.445 103.961 128.203 100.953C 124.961 97.9453 123.34 93.8242 123.34 88.5898C 123.34 83.3555 125.781 79.1172 130.664 75.875C 135.586 72.5938 141.855 70.9531 149.473 70.9531C 151.738 70.9531 154.727 71.3438 158.438 72.125L 158.438 67.5547C 158.438 57.5156 154.199 52.4961 145.723 52.4961C 141.23 52.4961 137.93 54.5664 135.82 58.707C 133.984 62.418 132.188 64.2734 130.43 64.2734C 129.141 64.2734 128.008 63.9023 127.031 63.1602C 126.094 62.418 125.625 61.4805 125.625 60.3477C 125.625 59.2148 126.211 57.9648 127.383 56.5977C 128.555 55.1914 130.117 53.9219 132.07 52.7891C 136.68 50.0938 141.738 48.7461 147.246 48.7461C 157.012 48.7461 163.32 51.9297 166.172 58.2969C 167.227 60.5625 167.754 63.3359 167.754 66.6172L 167.754 89.9961C 167.754 93.0039 168.047 94.9375 168.633 95.7969C 169.219 96.6562 170.039 97.0859 171.094 97.0859C 172.148 97.0859 173.008 96.9297 173.672 96.6172C 174.336 96.3047 174.961 96.1484 175.547 96.1484ZM 158.438 77.5742C 155.625 75.9727 152.07 75.1719 147.773 75.1719C 143.477 75.1719 140.02 76.2461 137.402 78.3945C 134.824 80.543 133.535 83.4336 133.535 87.0664C 133.535 90.6602 134.531 93.668 136.523 96.0898C 138.516 98.4727 141.074 99.6641 144.199 99.6641C 150.879 99.6641 155.684 97.4766 158.613 93.1016C 158.496 92.0078 158.438 90.7969 158.438 89.4688L 158.438 77.5742Z"/>
<path id="path4_fill" d="M 182.871 77.1641C 182.871 73.0234 183.613 69.1953 185.098 65.6797C 186.621 62.125 188.672 59.0977 191.25 56.5977C 196.719 51.3633 203.613 48.7461 211.934 48.7461C 216.855 48.9023 221.133 50.0547 224.766 52.2031C 228.477 54.3516 230.41 56.9883 230.566 60.1133C 230.566 61.793 229.453 62.9062 227.227 63.4531C 226.641 63.5703 226.113 63.6289 225.645 63.6289C 223.848 63.6289 222.383 62.3984 221.25 59.9375C 219.023 55.2891 215.254 52.9648 209.941 52.9648C 205.254 52.9648 201.328 54.8984 198.164 58.7656C 194.805 62.8672 193.125 68.2773 193.125 74.9961C 193.125 82.457 194.863 88.4531 198.34 92.9844C 201.973 97.75 206.934 100.133 213.223 100.133C 217.52 100.133 221.289 98.4922 224.531 95.2109C 225.938 93.8047 226.992 93.1016 227.695 93.1016C 229.141 93.1016 229.863 93.8242 229.863 95.2695C 229.863 96.6758 228.477 98.3945 225.703 100.426C 221.211 103.785 215.684 105.465 209.121 105.465C 201.27 105.465 194.883 102.789 189.961 97.4375C 185.234 92.2422 182.871 85.4844 182.871 77.1641ZM 291.797 96.1484C 292.93 96.1484 293.496 96.6758 293.496 97.7305C 293.496 98.7461 292.363 99.7227 290.098 100.66C 287.832 101.598 286.25 102.457 285.352 103.238C 284.453 103.98 283.789 104.527 283.359 104.879C 282.93 105.27 282.422 105.465 281.836 105.465C 280.664 105.465 279.688 104.977 278.906 104C 278.125 103.023 277.07 100.934 275.742 97.7305C 273.516 100.27 270.801 102.203 267.598 103.531C 264.434 104.82 261.289 105.465 258.164 105.465C 252.266 105.465 247.695 103.961 244.453 100.953C 241.211 97.9453 239.59 93.8242 239.59 88.5898C 239.59 83.3555 242.031 79.1172 246.914 75.875C 251.836 72.5938 258.105 70.9531 265.723 70.9531C 267.988 70.9531 270.977 71.3438 274.688 72.125L 274.688 67.5547C 274.688 57.5156 270.449 52.4961 261.973 52.4961C 257.48 52.4961 254.18 54.5664 252.07 58.707C 250.234 62.418 248.438 64.2734 246.68 64.2734C 245.391 64.2734 244.258 63.9023 243.281 63.1602C 242.344 62.418 241.875 61.4805 241.875 60.3477C 241.875 59.2148 242.461 57.9648 243.633 56.5977C 244.805 55.1914 246.367 53.9219 248.32 52.7891C 252.93 50.0938 257.988 48.7461 263.496 48.7461C 273.262 48.7461 279.57 51.9297 282.422 58.2969C 283.477 60.5625 284.004 63.3359 284.004 66.6172L 284.004 89.9961C 284.004 93.0039 284.297 94.9375 284.883 95.7969C 285.469 96.6562 286.289 97.0859 287.344 97.0859C 288.398 97.0859 289.258 96.9297 289.922 96.6172C 290.586 96.3047 291.211 96.1484 291.797 96.1484ZM 274.688 77.5742C 271.875 75.9727 268.32 75.1719 264.023 75.1719C 259.727 75.1719 256.27 76.2461 253.652 78.3945C 251.074 80.543 249.785 83.4336 249.785 87.0664C 249.785 90.6602 250.781 93.668 252.773 96.0898C 254.766 98.4727 257.324 99.6641 260.449 99.6641C 267.129 99.6641 271.934 97.4766 274.863 93.1016C 274.746 92.0078 274.688 90.7969 274.688 89.4688L 274.688 77.5742ZM 301.113 104.879C 298.496 104.879 297.188 104.156 297.188 102.711C 297.188 101.578 297.91 101.012 299.355 101.012L 302.285 101.305C 303.184 101.305 303.926 101.148 304.512 100.836C 305.098 100.484 305.547 99.7617 305.859 98.668C 306.484 96.6758 306.797 92.2617 306.797 85.4258L 306.797 67.9062C 306.797 63.9219 306.543 61.4414 306.035 60.4648C 305.566 59.4492 304.98 58.7656 304.277 58.4141C 303.613 58.0234 302.5 57.7109 300.938 57.4766C 299.414 57.2422 298.652 56.6367 298.652 55.6602C 298.652 54.7617 299.648 54.1172 301.641 53.7266C 306.289 52.75 309.492 51.7734 311.25 50.7969C 313.633 49.4297 315.254 48.7461 316.113 48.7461C 317.012 48.7461 317.461 49.1953 317.461 50.0938C 317.461 50.5234 317.363 50.9727 317.168 51.4414C 317.012 51.9102 316.836 52.4766 316.641 53.1406C 316.328 54.4688 316.094 56.9688 315.938 60.6406C 319.336 54.9375 323.438 51.3828 328.242 49.9766C 329.648 49.5469 331.211 49.332 332.93 49.332C 334.688 49.332 336.23 49.957 337.559 51.207C 338.926 52.457 339.609 53.7852 339.609 55.1914C 339.609 56.5977 339.453 57.6328 339.141 58.2969C 338.828 58.9609 338.438 59.5273 337.969 59.9961C 336.953 61.0117 336.035 61.5195 335.215 61.5195C 334.434 61.5195 333.828 61.3242 333.398 60.9336C 332.969 60.5039 332.48 59.7422 331.934 58.6484C 330.957 56.6953 329.863 55.7188 328.652 55.7188C 327.441 55.7188 326.289 55.9922 325.195 56.5391C 324.102 57.0469 323.008 57.8281 321.914 58.8828C 319.531 61.1094 317.52 64.1367 315.879 67.9648L 315.879 85.4258C 315.879 92.8477 316.074 97.2227 316.465 98.5508C 316.895 99.8398 317.402 100.621 317.988 100.895C 318.613 101.129 319.453 101.246 320.508 101.246L 325.723 100.777C 326.504 100.777 327.129 100.973 327.598 101.363C 328.066 101.715 328.301 102.164 328.301 102.711C 328.301 104.156 326.875 104.879 324.023 104.879L 311.66 104C 309.668 104 307.773 104.137 305.977 104.41C 304.219 104.723 302.598 104.879 301.113 104.879ZM 378.398 54.5469C 378.398 55.6016 377.773 56.1289 376.523 56.1289L 359.883 55.9531L 359.883 88.4141C 359.883 94.4688 361.348 98.0625 364.277 99.1953C 365.176 99.5469 366.23 99.7227 367.441 99.7227C 368.652 99.7227 369.746 99.5273 370.723 99.1367C 371.738 98.707 372.637 98.2578 373.418 97.7891C 374.199 97.3203 374.863 96.8906 375.41 96.5C 375.957 96.0703 376.465 95.8555 376.934 95.8555C 377.441 95.8555 377.891 96.1289 378.281 96.6758C 378.672 97.2227 378.867 97.7695 378.867 98.3164C 378.867 99.6836 377.129 101.324 373.652 103.238C 370.996 104.723 367.656 105.465 363.633 105.465C 359.609 105.465 356.465 104.039 354.199 101.188C 351.934 98.2969 350.801 94.3125 350.801 89.2344L 350.801 55.7773L 347.227 55.7773C 344.414 55.7773 343.008 55.0547 343.008 53.6094C 343.008 52.5547 343.789 51.832 345.352 51.4414C 346.914 51.0508 348.262 50.3672 349.395 49.3906C 350.527 48.375 351.445 47.2422 352.148 45.9922C 352.891 44.7031 353.477 43.375 353.906 42.0078C 354.336 40.6406 354.727 39.3906 355.078 38.2578C 355.938 35.6797 356.914 34.3906 358.008 34.3906C 359.258 34.3906 359.883 35.5039 359.883 37.7305L 359.883 50.9727L 376.348 50.6211C 377.168 50.6211 377.812 51.5977 378.281 53.5508C 378.359 53.9805 378.398 54.3125 378.398 54.5469ZM 392.812 97.4375C 390.547 94.8984 388.789 91.9102 387.539 88.4727C 386.328 85.0352 385.723 81.2266 385.723 77.0469C 385.723 72.8281 386.445 68.9609 387.891 65.4453C 389.336 61.9297 391.328 58.9219 393.867 56.4219C 399.141 51.2266 405.645 48.6289 413.379 48.6289C 419.785 48.6289 424.961 50.7383 428.906 54.957C 432.656 59.0195 434.531 64.0391 434.531 70.0156C 434.531 71.9688 434.258 73.3164 433.711 74.0586C 433.203 74.7617 432.559 75.1914 431.777 75.3477C 430.996 75.4648 429.922 75.582 428.555 75.6992C 427.188 75.7773 425.527 75.875 423.574 75.9922C 421.621 76.1094 419.434 76.2266 417.012 76.3438C 414.629 76.4609 412.188 76.5977 409.688 76.7539C 403.945 77.1055 399.336 77.457 395.859 77.8086C 396.719 88.3164 400.742 95.1328 407.93 98.2578C 410.273 99.2734 412.773 99.7812 415.43 99.7812C 421.055 99.7812 425.508 98.1406 428.789 94.8594C 430.195 93.4531 431.27 92.75 432.012 92.75C 433.418 92.75 434.121 93.5898 434.121 95.2695C 434.121 96.1289 433.535 97.1641 432.363 98.375C 431.191 99.5859 429.512 100.836 427.324 102.125C 423.457 104.352 418.945 105.465 413.789 105.465C 408.633 105.465 404.414 104.762 401.133 103.355C 397.891 101.91 395.117 99.9375 392.812 97.4375ZM 395.742 73.4727C 414.062 72.5352 423.711 71.5391 424.688 70.4844C 425.039 70.0938 425.215 68.9414 425.215 67.0273C 425.215 65.1133 424.844 63.2578 424.102 61.4609C 423.359 59.625 422.363 58.0625 421.113 56.7734C 418.535 54.1562 415.332 52.8477 411.504 52.8477C 407.168 52.8477 403.516 54.6641 400.547 58.2969C 397.422 62.0859 395.82 67.1445 395.742 73.4727Z"/>
</defs>
</svg>
